<svg width="195" height="351" viewBox="0 0 195 351" fill="none" xmlns="http://www.w3.org/2000/svg">
<path d="M97.5 135V226M97.5 226C97.5 237.2 125.5 237 146 237V240.5H97.5H49V237C69.5 237 97.5 237.2 97.5 226Z" stroke="black" stroke-width="3"/>
<path d="M193 87H2C2 129.39 65.6917 135 97.5 135C129.5 135 193 129.39 193 87Z" fill="#63F7DC" stroke="black" stroke-width="3"/>
<path d="M41.1211 262.08H45.1641V263H39.9902V254.469H41.1211V262.08ZM47.4551 263H46.3711V256.66H47.4551V263ZM46.2832 254.979C46.2832 254.803 46.3359 254.654 46.4414 254.533C46.5508 254.412 46.7109 254.352 46.9219 254.352C47.1328 254.352 47.293 254.412 47.4023 254.533C47.5117 254.654 47.5664 254.803 47.5664 254.979C47.5664 255.154 47.5117 255.301 47.4023 255.418C47.293 255.535 47.1328 255.594 46.9219 255.594C46.7109 255.594 46.5508 255.535 46.4414 255.418C46.3359 255.301 46.2832 255.154 46.2832 254.979ZM50.2148 256.66L50.2441 257.363C50.709 256.816 51.3359 256.543 52.125 256.543C53.0117 256.543 53.6152 256.883 53.9355 257.562C54.1465 257.258 54.4199 257.012 54.7559 256.824C55.0957 256.637 55.4961 256.543 55.957 256.543C57.3477 256.543 58.0547 257.279 58.0781 258.752V263H56.9941V258.816C56.9941 258.363 56.8906 258.025 56.6836 257.803C56.4766 257.576 56.1289 257.463 55.6406 257.463C55.2383 257.463 54.9043 257.584 54.6387 257.826C54.373 258.064 54.2188 258.387 54.1758 258.793V263H53.0859V258.846C53.0859 257.924 52.6348 257.463 51.7324 257.463C51.0215 257.463 50.5352 257.766 50.2734 258.371V263H49.1895V256.66H50.2148ZM62.3496 263.117C61.4902 263.117 60.791 262.836 60.252 262.273C59.7129 261.707 59.4434 260.951 59.4434 260.006V259.807C59.4434 259.178 59.5625 258.617 59.8008 258.125C60.043 257.629 60.3789 257.242 60.8086 256.965C61.2422 256.684 61.7109 256.543 62.2148 256.543C63.0391 256.543 63.6797 256.814 64.1367 257.357C64.5938 257.9 64.8223 258.678 64.8223 259.689V260.141H60.5273C60.543 260.766 60.7246 261.271 61.0723 261.658C61.4238 262.041 61.8691 262.232 62.4082 262.232C62.791 262.232 63.1152 262.154 63.3809 261.998C63.6465 261.842 63.8789 261.635 64.0781 261.377L64.7402 261.893C64.209 262.709 63.4121 263.117 62.3496 263.117ZM62.2148 257.434C61.7773 257.434 61.4102 257.594 61.1133 257.914C60.8164 258.23 60.6328 258.676 60.5625 259.25H63.7383V259.168C63.707 258.617 63.5586 258.191 63.293 257.891C63.0273 257.586 62.668 257.434 62.2148 257.434ZM72.8027 254.469H73.9336V260.51C73.9336 261.326 73.6875 261.965 73.1953 262.426C72.707 262.887 72.0547 263.117 71.2383 263.117C70.3906 263.117 69.7305 262.9 69.2578 262.467C68.7852 262.033 68.5488 261.426 68.5488 260.645H69.6738C69.6738 261.133 69.8066 261.514 70.0723 261.787C70.3418 262.061 70.7305 262.197 71.2383 262.197C71.7031 262.197 72.0781 262.051 72.3633 261.758C72.6523 261.465 72.7988 261.055 72.8027 260.527V254.469ZM79.5938 262.373C79.1719 262.869 78.5527 263.117 77.7363 263.117C77.0605 263.117 76.5449 262.922 76.1895 262.531C75.8379 262.137 75.6602 261.555 75.6562 260.785V256.66H76.7402V260.756C76.7402 261.717 77.1309 262.197 77.9121 262.197C78.7402 262.197 79.291 261.889 79.5645 261.271V256.66H80.6484V263H79.6172L79.5938 262.373ZM83.4785 263H82.3945V256.66H83.4785V263ZM82.3066 254.979C82.3066 254.803 82.3594 254.654 82.4648 254.533C82.5742 254.412 82.7344 254.352 82.9453 254.352C83.1562 254.352 83.3164 254.412 83.4258 254.533C83.5352 254.654 83.5898 254.803 83.5898 254.979C83.5898 255.154 83.5352 255.301 83.4258 255.418C83.3164 255.535 83.1562 255.594 82.9453 255.594C82.7344 255.594 82.5742 255.535 82.4648 255.418C82.3594 255.301 82.3066 255.154 82.3066 254.979ZM87.7617 262.232C88.1484 262.232 88.4863 262.115 88.7754 261.881C89.0645 261.646 89.2246 261.354 89.2559 261.002H90.2812C90.2617 261.365 90.1367 261.711 89.9062 262.039C89.6758 262.367 89.3672 262.629 88.9805 262.824C88.5977 263.02 88.1914 263.117 87.7617 263.117C86.8984 263.117 86.2109 262.83 85.6992 262.256C85.1914 261.678 84.9375 260.889 84.9375 259.889V259.707C84.9375 259.09 85.0508 258.541 85.2773 258.061C85.5039 257.58 85.8281 257.207 86.25 256.941C86.6758 256.676 87.1777 256.543 87.7559 256.543C88.4668 256.543 89.0566 256.756 89.5254 257.182C89.998 257.607 90.25 258.16 90.2812 258.84H89.2559C89.2246 258.43 89.0684 258.094 88.7871 257.832C88.5098 257.566 88.166 257.434 87.7559 257.434C87.2051 257.434 86.7773 257.633 86.4727 258.031C86.1719 258.426 86.0215 258.998 86.0215 259.748V259.953C86.0215 260.684 86.1719 261.246 86.4727 261.641C86.7734 262.035 87.2031 262.232 87.7617 262.232ZM94.1309 263.117C93.2715 263.117 92.5723 262.836 92.0332 262.273C91.4941 261.707 91.2246 260.951 91.2246 260.006V259.807C91.2246 259.178 91.3438 258.617 91.582 258.125C91.8242 257.629 92.1602 257.242 92.5898 256.965C93.0234 256.684 93.4922 256.543 93.9961 256.543C94.8203 256.543 95.4609 256.814 95.918 257.357C96.375 257.9 96.6035 258.678 96.6035 259.689V260.141H92.3086C92.3242 260.766 92.5059 261.271 92.8535 261.658C93.2051 262.041 93.6504 262.232 94.1895 262.232C94.5723 262.232 94.8965 262.154 95.1621 261.998C95.4277 261.842 95.6602 261.635 95.8594 261.377L96.5215 261.893C95.9902 262.709 95.1934 263.117 94.1309 263.117ZM93.9961 257.434C93.5586 257.434 93.1914 257.594 92.8945 257.914C92.5977 258.23 92.4141 258.676 92.3438 259.25H95.5195V259.168C95.4883 258.617 95.3398 258.191 95.0742 257.891C94.8086 257.586 94.4492 257.434 93.9961 257.434ZM41.1152 281.66V285H39.9902V276.469H43.1367C44.0703 276.469 44.8008 276.707 45.3281 277.184C45.8594 277.66 46.125 278.291 46.125 279.076C46.125 279.904 45.8652 280.543 45.3457 280.992C44.8301 281.438 44.0898 281.66 43.125 281.66H41.1152ZM41.1152 280.74H43.1367C43.7383 280.74 44.1992 280.6 44.5195 280.318C44.8398 280.033 45 279.623 45 279.088C45 278.58 44.8398 278.174 44.5195 277.869C44.1992 277.564 43.7598 277.406 43.2012 277.395H41.1152V280.74ZM51.2344 285C51.1719 284.875 51.1211 284.652 51.082 284.332C50.5781 284.855 49.9766 285.117 49.2773 285.117C48.6523 285.117 48.1387 284.941 47.7363 284.59C47.3379 284.234 47.1387 283.785 47.1387 283.242C47.1387 282.582 47.3887 282.07 47.8887 281.707C48.3926 281.34 49.0996 281.156 50.0098 281.156H51.0645V280.658C51.0645 280.279 50.9512 279.979 50.7246 279.756C50.498 279.529 50.1641 279.416 49.7227 279.416C49.3359 279.416 49.0117 279.514 48.75 279.709C48.4883 279.904 48.3574 280.141 48.3574 280.418H47.2676C47.2676 280.102 47.3789 279.797 47.6016 279.504C47.8281 279.207 48.1328 278.973 48.5156 278.801C48.9023 278.629 49.3262 278.543 49.7871 278.543C50.5176 278.543 51.0898 278.727 51.5039 279.094C51.918 279.457 52.1328 279.959 52.1484 280.6V283.518C52.1484 284.1 52.2227 284.562 52.3711 284.906V285H51.2344ZM49.4355 284.174C49.7754 284.174 50.0977 284.086 50.4023 283.91C50.707 283.734 50.9277 283.506 51.0645 283.225V281.924H50.2148C48.8867 281.924 48.2227 282.312 48.2227 283.09C48.2227 283.43 48.3359 283.695 48.5625 283.887C48.7891 284.078 49.0801 284.174 49.4355 284.174ZM55.3184 277.125V278.66H56.502V279.498H55.3184V283.43C55.3184 283.684 55.3711 283.875 55.4766 284.004C55.582 284.129 55.7617 284.191 56.0156 284.191C56.1406 284.191 56.3125 284.168 56.5312 284.121V285C56.2461 285.078 55.9688 285.117 55.6992 285.117C55.2148 285.117 54.8496 284.971 54.6035 284.678C54.3574 284.385 54.2344 283.969 54.2344 283.43V279.498H53.0801V278.66H54.2344V277.125H55.3184ZM60.8379 279.633C60.6738 279.605 60.4961 279.592 60.3047 279.592C59.5938 279.592 59.1113 279.895 58.8574 280.5V285H57.7734V278.66H58.8281L58.8457 279.393C59.2012 278.826 59.7051 278.543 60.3574 278.543C60.5684 278.543 60.7285 278.57 60.8379 278.625V279.633ZM61.4355 281.771C61.4355 281.15 61.5566 280.592 61.7988 280.096C62.0449 279.6 62.3848 279.217 62.8184 278.947C63.2559 278.678 63.7539 278.543 64.3125 278.543C65.1758 278.543 65.873 278.842 66.4043 279.439C66.9395 280.037 67.207 280.832 67.207 281.824V281.9C67.207 282.518 67.0879 283.072 66.8496 283.564C66.6152 284.053 66.2773 284.434 65.8359 284.707C65.3984 284.98 64.8945 285.117 64.3242 285.117C63.4648 285.117 62.7676 284.818 62.2324 284.221C61.7012 283.623 61.4355 282.832 61.4355 281.848V281.771ZM62.5254 281.9C62.5254 282.604 62.6875 283.168 63.0117 283.594C63.3398 284.02 63.7773 284.232 64.3242 284.232C64.875 284.232 65.3125 284.018 65.6367 283.588C65.9609 283.154 66.123 282.549 66.123 281.771C66.123 281.076 65.957 280.514 65.625 280.084C65.2969 279.65 64.8594 279.434 64.3125 279.434C63.7773 279.434 63.3457 279.646 63.0176 280.072C62.6895 280.498 62.5254 281.107 62.5254 281.9ZM69.5918 278.66L69.627 279.457C70.1113 278.848 70.7441 278.543 71.5254 278.543C72.8652 278.543 73.541 279.299 73.5527 280.811V285H72.4688V280.805C72.4648 280.348 72.3594 280.01 72.1523 279.791C71.9492 279.572 71.6309 279.463 71.1973 279.463C70.8457 279.463 70.5371 279.557 70.2715 279.744C70.0059 279.932 69.7988 280.178 69.6504 280.482V285H68.5664V278.66H69.5918ZM80.8477 281.197C79.8828 280.92 79.1797 280.58 78.7383 280.178C78.3008 279.771 78.082 279.271 78.082 278.678C78.082 278.006 78.3496 277.451 78.8848 277.014C79.4238 276.572 80.123 276.352 80.9824 276.352C81.5684 276.352 82.0898 276.465 82.5469 276.691C83.0078 276.918 83.3633 277.23 83.6133 277.629C83.8672 278.027 83.9941 278.463 83.9941 278.936H82.8633C82.8633 278.42 82.6992 278.016 82.3711 277.723C82.043 277.426 81.5801 277.277 80.9824 277.277C80.4277 277.277 79.9941 277.4 79.6816 277.646C79.373 277.889 79.2188 278.227 79.2188 278.66C79.2188 279.008 79.3652 279.303 79.6582 279.545C79.9551 279.783 80.457 280.002 81.1641 280.201C81.875 280.4 82.4297 280.621 82.8281 280.863C83.2305 281.102 83.5273 281.381 83.7188 281.701C83.9141 282.021 84.0117 282.398 84.0117 282.832C84.0117 283.523 83.7422 284.078 83.2031 284.496C82.6641 284.91 81.9434 285.117 81.041 285.117C80.4551 285.117 79.9082 285.006 79.4004 284.783C78.8926 284.557 78.5 284.248 78.2227 283.857C77.9492 283.467 77.8125 283.023 77.8125 282.527H78.9434C78.9434 283.043 79.1328 283.451 79.5117 283.752C79.8945 284.049 80.4043 284.197 81.041 284.197C81.6348 284.197 82.0898 284.076 82.4062 283.834C82.7227 283.592 82.8809 283.262 82.8809 282.844C82.8809 282.426 82.7344 282.104 82.4414 281.877C82.1484 281.646 81.6172 281.42 80.8477 281.197ZM86.4668 285H85.3828V278.66H86.4668V285ZM85.2949 276.979C85.2949 276.803 85.3477 276.654 85.4531 276.533C85.5625 276.412 85.7227 276.352 85.9336 276.352C86.1445 276.352 86.3047 276.412 86.4141 276.533C86.5234 276.654 86.5781 276.803 86.5781 276.979C86.5781 277.154 86.5234 277.301 86.4141 277.418C86.3047 277.535 86.1445 277.594 85.9336 277.594C85.7227 277.594 85.5625 277.535 85.4531 277.418C85.3477 277.301 85.2949 277.154 85.2949 276.979ZM89.3848 285H88.3008V276H89.3848V285ZM93.2168 283.529L94.7871 278.66H95.8945L93.6211 285H92.7949L90.498 278.66H91.6055L93.2168 283.529ZM99.4863 285.117C98.627 285.117 97.9277 284.836 97.3887 284.273C96.8496 283.707 96.5801 282.951 96.5801 282.006V281.807C96.5801 281.178 96.6992 280.617 96.9375 280.125C97.1797 279.629 97.5156 279.242 97.9453 278.965C98.3789 278.684 98.8477 278.543 99.3516 278.543C100.176 278.543 100.816 278.814 101.273 279.357C101.73 279.9 101.959 280.678 101.959 281.689V282.141H97.6641C97.6797 282.766 97.8613 283.271 98.209 283.658C98.5605 284.041 99.0059 284.232 99.5449 284.232C99.9277 284.232 100.252 284.154 100.518 283.998C100.783 283.842 101.016 283.635 101.215 283.377L101.877 283.893C101.346 284.709 100.549 285.117 99.4863 285.117ZM99.3516 279.434C98.9141 279.434 98.5469 279.594 98.25 279.914C97.9531 280.23 97.7695 280.676 97.6992 281.25H100.875V281.168C100.844 280.617 100.695 280.191 100.43 279.891C100.164 279.586 99.8047 279.434 99.3516 279.434ZM106.283 279.633C106.119 279.605 105.941 279.592 105.75 279.592C105.039 279.592 104.557 279.895 104.303 280.5V285H103.219V278.66H104.273L104.291 279.393C104.646 278.826 105.15 278.543 105.803 278.543C106.014 278.543 106.174 278.57 106.283 278.625V279.633ZM39.9902 307V298.469H42.3984C43.1406 298.469 43.7969 298.633 44.3672 298.961C44.9375 299.289 45.377 299.756 45.6855 300.361C45.998 300.967 46.1562 301.662 46.1602 302.447V302.992C46.1602 303.797 46.0039 304.502 45.6914 305.107C45.3828 305.713 44.9395 306.178 44.3613 306.502C43.7871 306.826 43.1172 306.992 42.3516 307H39.9902ZM41.1152 299.395V306.08H42.2988C43.166 306.08 43.8398 305.811 44.3203 305.271C44.8047 304.732 45.0469 303.965 45.0469 302.969V302.471C45.0469 301.502 44.8184 300.75 44.3613 300.215C43.9082 299.676 43.2637 299.402 42.4277 299.395H41.1152ZM50.0332 303.033L48.9902 304.117V307H47.8652V298.469H48.9902V302.688L52.7812 298.469H54.1406L50.7832 302.236L54.4043 307H53.0566L50.0332 303.033ZM64.0254 299.395H61.2832V307H60.1641V299.395H57.4277V298.469H64.0254V299.395ZM67.7402 301.633C67.5762 301.605 67.3984 301.592 67.207 301.592C66.4961 301.592 66.0137 301.895 65.7598 302.5V307H64.6758V300.66H65.7305L65.748 301.393C66.1035 300.826 66.6074 300.543 67.2598 300.543C67.4707 300.543 67.6309 300.57 67.7402 300.625V301.633ZM69.9199 307H68.8359V300.66H69.9199V307ZM68.748 298.979C68.748 298.803 68.8008 298.654 68.9062 298.533C69.0156 298.412 69.1758 298.352 69.3867 298.352C69.5977 298.352 69.7578 298.412 69.8672 298.533C69.9766 298.654 70.0312 298.803 70.0312 298.979C70.0312 299.154 69.9766 299.301 69.8672 299.418C69.7578 299.535 69.5977 299.594 69.3867 299.594C69.1758 299.594 69.0156 299.535 68.9062 299.418C68.8008 299.301 68.748 299.154 68.748 298.979ZM77.0156 303.9C77.0156 304.865 76.7949 305.643 76.3535 306.232C75.9121 306.822 75.3145 307.117 74.5605 307.117C73.791 307.117 73.1855 306.873 72.7441 306.385V309.438H71.6602V300.66H72.6504L72.7031 301.363C73.1445 300.816 73.7578 300.543 74.543 300.543C75.3047 300.543 75.9062 300.83 76.3477 301.404C76.793 301.979 77.0156 302.777 77.0156 303.801V303.9ZM75.9316 303.777C75.9316 303.062 75.7793 302.498 75.4746 302.084C75.1699 301.67 74.752 301.463 74.2207 301.463C73.5645 301.463 73.0723 301.754 72.7441 302.336V305.365C73.0684 305.943 73.5645 306.232 74.2324 306.232C74.752 306.232 75.1641 306.027 75.4688 305.617C75.7773 305.203 75.9316 304.59 75.9316 303.777ZM79.5762 307H78.4922V298H79.5762V307ZM83.9473 307.117C83.0879 307.117 82.3887 306.836 81.8496 306.273C81.3105 305.707 81.041 304.951 81.041 304.006V303.807C81.041 303.178 81.1602 302.617 81.3984 302.125C81.6406 301.629 81.9766 301.242 82.4062 300.965C82.8398 300.684 83.3086 300.543 83.8125 300.543C84.6367 300.543 85.2773 300.814 85.7344 301.357C86.1914 301.9 86.4199 302.678 86.4199 303.689V304.141H82.125C82.1406 304.766 82.3223 305.271 82.6699 305.658C83.0215 306.041 83.4668 306.232 84.0059 306.232C84.3887 306.232 84.7129 306.154 84.9785 305.998C85.2441 305.842 85.4766 305.635 85.6758 305.377L86.3379 305.893C85.8066 306.709 85.0098 307.117 83.9473 307.117ZM83.8125 301.434C83.375 301.434 83.0078 301.594 82.7109 301.914C82.4141 302.23 82.2305 302.676 82.1602 303.25H85.3359V303.168C85.3047 302.617 85.1562 302.191 84.8906 301.891C84.625 301.586 84.2656 301.434 83.8125 301.434ZM93.3398 303.197C92.375 302.92 91.6719 302.58 91.2305 302.178C90.793 301.771 90.5742 301.271 90.5742 300.678C90.5742 300.006 90.8418 299.451 91.377 299.014C91.916 298.572 92.6152 298.352 93.4746 298.352C94.0605 298.352 94.582 298.465 95.0391 298.691C95.5 298.918 95.8555 299.23 96.1055 299.629C96.3594 300.027 96.4863 300.463 96.4863 300.936H95.3555C95.3555 300.42 95.1914 300.016 94.8633 299.723C94.5352 299.426 94.0723 299.277 93.4746 299.277C92.9199 299.277 92.4863 299.4 92.1738 299.646C91.8652 299.889 91.7109 300.227 91.7109 300.66C91.7109 301.008 91.8574 301.303 92.1504 301.545C92.4473 301.783 92.9492 302.002 93.6562 302.201C94.3672 302.4 94.9219 302.621 95.3203 302.863C95.7227 303.102 96.0195 303.381 96.2109 303.701C96.4062 304.021 96.5039 304.398 96.5039 304.832C96.5039 305.523 96.2344 306.078 95.6953 306.496C95.1562 306.91 94.4355 307.117 93.5332 307.117C92.9473 307.117 92.4004 307.006 91.8926 306.783C91.3848 306.557 90.9922 306.248 90.7148 305.857C90.4414 305.467 90.3047 305.023 90.3047 304.527H91.4355C91.4355 305.043 91.625 305.451 92.0039 305.752C92.3867 306.049 92.8965 306.197 93.5332 306.197C94.127 306.197 94.582 306.076 94.8984 305.834C95.2148 305.592 95.373 305.262 95.373 304.844C95.373 304.426 95.2266 304.104 94.9336 303.877C94.6406 303.646 94.1094 303.42 93.3398 303.197ZM100.412 307.117C99.5527 307.117 98.8535 306.836 98.3145 306.273C97.7754 305.707 97.5059 304.951 97.5059 304.006V303.807C97.5059 303.178 97.625 302.617 97.8633 302.125C98.1055 301.629 98.4414 301.242 98.8711 300.965C99.3047 300.684 99.7734 300.543 100.277 300.543C101.102 300.543 101.742 300.814 102.199 301.357C102.656 301.9 102.885 302.678 102.885 303.689V304.141H98.5898C98.6055 304.766 98.7871 305.271 99.1348 305.658C99.4863 306.041 99.9316 306.232 100.471 306.232C100.854 306.232 101.178 306.154 101.443 305.998C101.709 305.842 101.941 305.635 102.141 305.377L102.803 305.893C102.271 306.709 101.475 307.117 100.412 307.117ZM100.277 301.434C99.8398 301.434 99.4727 301.594 99.1758 301.914C98.8789 302.23 98.6953 302.676 98.625 303.25H101.801V303.168C101.77 302.617 101.621 302.191 101.355 301.891C101.09 301.586 100.73 301.434 100.277 301.434ZM106.688 306.232C107.074 306.232 107.412 306.115 107.701 305.881C107.99 305.646 108.15 305.354 108.182 305.002H109.207C109.188 305.365 109.062 305.711 108.832 306.039C108.602 306.367 108.293 306.629 107.906 306.824C107.523 307.02 107.117 307.117 106.688 307.117C105.824 307.117 105.137 306.83 104.625 306.256C104.117 305.678 103.863 304.889 103.863 303.889V303.707C103.863 303.09 103.977 302.541 104.203 302.061C104.43 301.58 104.754 301.207 105.176 300.941C105.602 300.676 106.104 300.543 106.682 300.543C107.393 300.543 107.982 300.756 108.451 301.182C108.924 301.607 109.176 302.16 109.207 302.84H108.182C108.15 302.43 107.994 302.094 107.713 301.832C107.436 301.566 107.092 301.434 106.682 301.434C106.131 301.434 105.703 301.633 105.398 302.031C105.098 302.426 104.947 302.998 104.947 303.748V303.953C104.947 304.684 105.098 305.246 105.398 305.641C105.699 306.035 106.129 306.232 106.688 306.232ZM42.5039 325.197C41.5391 324.92 40.8359 324.58 40.3945 324.178C39.957 323.771 39.7383 323.271 39.7383 322.678C39.7383 322.006 40.0059 321.451 40.541 321.014C41.0801 320.572 41.7793 320.352 42.6387 320.352C43.2246 320.352 43.7461 320.465 44.2031 320.691C44.6641 320.918 45.0195 321.23 45.2695 321.629C45.5234 322.027 45.6504 322.463 45.6504 322.936H44.5195C44.5195 322.42 44.3555 322.016 44.0273 321.723C43.6992 321.426 43.2363 321.277 42.6387 321.277C42.084 321.277 41.6504 321.4 41.3379 321.646C41.0293 321.889 40.875 322.227 40.875 322.66C40.875 323.008 41.0215 323.303 41.3145 323.545C41.6113 323.783 42.1133 324.002 42.8203 324.201C43.5312 324.4 44.0859 324.621 44.4844 324.863C44.8867 325.102 45.1836 325.381 45.375 325.701C45.5703 326.021 45.668 326.398 45.668 326.832C45.668 327.523 45.3984 328.078 44.8594 328.496C44.3203 328.91 43.5996 329.117 42.6973 329.117C42.1113 329.117 41.5645 329.006 41.0566 328.783C40.5488 328.557 40.1562 328.248 39.8789 327.857C39.6055 327.467 39.4688 327.023 39.4688 326.527H40.5996C40.5996 327.043 40.7891 327.451 41.168 327.752C41.5508 328.049 42.0605 328.197 42.6973 328.197C43.291 328.197 43.7461 328.076 44.0625 327.834C44.3789 327.592 44.5371 327.262 44.5371 326.844C44.5371 326.426 44.3906 326.104 44.0977 325.877C43.8047 325.646 43.2734 325.42 42.5039 325.197ZM50.8594 328.373C50.4375 328.869 49.8184 329.117 49.002 329.117C48.3262 329.117 47.8105 328.922 47.4551 328.531C47.1035 328.137 46.9258 327.555 46.9219 326.785V322.66H48.0059V326.756C48.0059 327.717 48.3965 328.197 49.1777 328.197C50.0059 328.197 50.5566 327.889 50.8301 327.271V322.66H51.9141V329H50.8828L50.8594 328.373ZM53.3086 325.777C53.3086 324.789 53.5371 324.004 53.9941 323.422C54.4512 322.836 55.0566 322.543 55.8105 322.543C56.584 322.543 57.1875 322.816 57.6211 323.363L57.6738 322.66H58.6641V328.848C58.6641 329.668 58.4199 330.314 57.9316 330.787C57.4473 331.26 56.7949 331.496 55.9746 331.496C55.5176 331.496 55.0703 331.398 54.6328 331.203C54.1953 331.008 53.8613 330.74 53.6309 330.4L54.1934 329.75C54.6582 330.324 55.2266 330.611 55.8984 330.611C56.4258 330.611 56.8359 330.463 57.1289 330.166C57.4258 329.869 57.5742 329.451 57.5742 328.912V328.367C57.1406 328.867 56.5488 329.117 55.7988 329.117C55.0566 329.117 54.4551 328.818 53.9941 328.221C53.5371 327.623 53.3086 326.809 53.3086 325.777ZM54.3984 325.9C54.3984 326.615 54.5449 327.178 54.8379 327.588C55.1309 327.994 55.541 328.197 56.0684 328.197C56.752 328.197 57.2539 327.887 57.5742 327.266V324.371C57.2422 323.766 56.7441 323.463 56.0801 323.463C55.5527 323.463 55.1406 323.668 54.8438 324.078C54.5469 324.488 54.3984 325.096 54.3984 325.9ZM64.2188 329C64.1562 328.875 64.1055 328.652 64.0664 328.332C63.5625 328.855 62.9609 329.117 62.2617 329.117C61.6367 329.117 61.123 328.941 60.7207 328.59C60.3223 328.234 60.123 327.785 60.123 327.242C60.123 326.582 60.373 326.07 60.873 325.707C61.377 325.34 62.084 325.156 62.9941 325.156H64.0488V324.658C64.0488 324.279 63.9355 323.979 63.709 323.756C63.4824 323.529 63.1484 323.416 62.707 323.416C62.3203 323.416 61.9961 323.514 61.7344 323.709C61.4727 323.904 61.3418 324.141 61.3418 324.418H60.252C60.252 324.102 60.3633 323.797 60.5859 323.504C60.8125 323.207 61.1172 322.973 61.5 322.801C61.8867 322.629 62.3105 322.543 62.7715 322.543C63.502 322.543 64.0742 322.727 64.4883 323.094C64.9023 323.457 65.1172 323.959 65.1328 324.6V327.518C65.1328 328.1 65.207 328.562 65.3555 328.906V329H64.2188ZM62.4199 328.174C62.7598 328.174 63.082 328.086 63.3867 327.91C63.6914 327.734 63.9121 327.506 64.0488 327.225V325.924H63.1992C61.8711 325.924 61.207 326.312 61.207 327.09C61.207 327.43 61.3203 327.695 61.5469 327.887C61.7734 328.078 62.0645 328.174 62.4199 328.174ZM69.8965 323.633C69.7324 323.605 69.5547 323.592 69.3633 323.592C68.6523 323.592 68.1699 323.895 67.916 324.5V329H66.832V322.66H67.8867L67.9043 323.393C68.2598 322.826 68.7637 322.543 69.416 322.543C69.627 322.543 69.7871 322.57 69.8965 322.625V323.633ZM76.5586 325.197C75.5938 324.92 74.8906 324.58 74.4492 324.178C74.0117 323.771 73.793 323.271 73.793 322.678C73.793 322.006 74.0605 321.451 74.5957 321.014C75.1348 320.572 75.834 320.352 76.6934 320.352C77.2793 320.352 77.8008 320.465 78.2578 320.691C78.7188 320.918 79.0742 321.23 79.3242 321.629C79.5781 322.027 79.7051 322.463 79.7051 322.936H78.5742C78.5742 322.42 78.4102 322.016 78.082 321.723C77.7539 321.426 77.291 321.277 76.6934 321.277C76.1387 321.277 75.7051 321.4 75.3926 321.646C75.084 321.889 74.9297 322.227 74.9297 322.66C74.9297 323.008 75.0762 323.303 75.3691 323.545C75.666 323.783 76.168 324.002 76.875 324.201C77.5859 324.4 78.1406 324.621 78.5391 324.863C78.9414 325.102 79.2383 325.381 79.4297 325.701C79.625 326.021 79.7227 326.398 79.7227 326.832C79.7227 327.523 79.4531 328.078 78.9141 328.496C78.375 328.91 77.6543 329.117 76.752 329.117C76.166 329.117 75.6191 329.006 75.1113 328.783C74.6035 328.557 74.2109 328.248 73.9336 327.857C73.6602 327.467 73.5234 327.023 73.5234 326.527H74.6543C74.6543 327.043 74.8438 327.451 75.2227 327.752C75.6055 328.049 76.1152 328.197 76.752 328.197C77.3457 328.197 77.8008 328.076 78.1172 327.834C78.4336 327.592 78.5918 327.262 78.5918 326.844C78.5918 326.426 78.4453 326.104 78.1523 325.877C77.8594 325.646 77.3281 325.42 76.5586 325.197ZM83.0742 327.412L84.5508 322.66H85.7109L83.1621 329.979C82.7676 331.033 82.1406 331.561 81.2812 331.561L81.0762 331.543L80.6719 331.467V330.588L80.9648 330.611C81.332 330.611 81.6172 330.537 81.8203 330.389C82.0273 330.24 82.1973 329.969 82.3301 329.574L82.5703 328.93L80.3086 322.66H81.4922L83.0742 327.412ZM89.748 323.633C89.584 323.605 89.4062 323.592 89.2148 323.592C88.5039 323.592 88.0215 323.895 87.7676 324.5V329H86.6836V322.66H87.7383L87.7559 323.393C88.1113 322.826 88.6152 322.543 89.2676 322.543C89.4785 322.543 89.6387 322.57 89.748 322.625V323.633ZM94.6641 328.373C94.2422 328.869 93.623 329.117 92.8066 329.117C92.1309 329.117 91.6152 328.922 91.2598 328.531C90.9082 328.137 90.7305 327.555 90.7266 326.785V322.66H91.8105V326.756C91.8105 327.717 92.2012 328.197 92.9824 328.197C93.8105 328.197 94.3613 327.889 94.6348 327.271V322.66H95.7188V329H94.6875L94.6641 328.373ZM102.727 325.9C102.727 326.865 102.506 327.643 102.064 328.232C101.623 328.822 101.025 329.117 100.271 329.117C99.502 329.117 98.8965 328.873 98.4551 328.385V331.438H97.3711V322.66H98.3613L98.4141 323.363C98.8555 322.816 99.4688 322.543 100.254 322.543C101.016 322.543 101.617 322.83 102.059 323.404C102.504 323.979 102.727 324.777 102.727 325.801V325.9ZM101.643 325.777C101.643 325.062 101.49 324.498 101.186 324.084C100.881 323.67 100.463 323.463 99.9316 323.463C99.2754 323.463 98.7832 323.754 98.4551 324.336V327.365C98.7793 327.943 99.2754 328.232 99.9434 328.232C100.463 328.232 100.875 328.027 101.18 327.617C101.488 327.203 101.643 326.59 101.643 325.777Z" fill="black"/>
<path d="M132.811 254.381V255.775H132.646C131.881 255.787 131.264 255.986 130.795 256.373C130.33 256.76 130.051 257.297 129.957 257.984C130.41 257.523 130.982 257.293 131.674 257.293C132.416 257.293 133.006 257.559 133.443 258.09C133.881 258.621 134.1 259.32 134.1 260.188C134.1 260.742 133.979 261.244 133.736 261.693C133.498 262.143 133.158 262.492 132.717 262.742C132.279 262.992 131.783 263.117 131.229 263.117C130.33 263.117 129.604 262.805 129.049 262.18C128.498 261.555 128.223 260.721 128.223 259.678V259.068C128.223 258.143 128.396 257.326 128.744 256.619C129.096 255.908 129.598 255.359 130.25 254.973C130.906 254.582 131.666 254.385 132.529 254.381H132.811ZM131.158 258.652C130.885 258.652 130.637 258.725 130.414 258.869C130.191 259.01 130.027 259.197 129.922 259.432V259.947C129.922 260.514 130.033 260.957 130.256 261.277C130.479 261.594 130.791 261.752 131.193 261.752C131.557 261.752 131.85 261.609 132.072 261.324C132.299 261.035 132.412 260.662 132.412 260.205C132.412 259.74 132.299 259.365 132.072 259.08C131.846 258.795 131.541 258.652 131.158 258.652ZM140.85 259.473C140.85 260.652 140.605 261.555 140.117 262.18C139.629 262.805 138.914 263.117 137.973 263.117C137.043 263.117 136.332 262.811 135.84 262.197C135.348 261.584 135.096 260.705 135.084 259.561V257.99C135.084 256.799 135.33 255.895 135.822 255.277C136.318 254.66 137.031 254.352 137.961 254.352C138.891 254.352 139.602 254.658 140.094 255.271C140.586 255.881 140.838 256.758 140.85 257.902V259.473ZM139.156 257.75C139.156 257.043 139.059 256.529 138.863 256.209C138.672 255.885 138.371 255.723 137.961 255.723C137.562 255.723 137.268 255.877 137.076 256.186C136.889 256.49 136.789 256.969 136.777 257.621V259.695C136.777 260.391 136.871 260.908 137.059 261.248C137.25 261.584 137.555 261.752 137.973 261.752C138.387 261.752 138.686 261.59 138.869 261.266C139.053 260.941 139.148 260.445 139.156 259.777V257.75ZM143.656 256.66L143.709 257.369C144.158 256.818 144.766 256.543 145.531 256.543C146.348 256.543 146.908 256.865 147.213 257.51C147.658 256.865 148.293 256.543 149.117 256.543C149.805 256.543 150.316 256.744 150.652 257.146C150.988 257.545 151.156 258.146 151.156 258.951V263H149.457V258.957C149.457 258.598 149.387 258.336 149.246 258.172C149.105 258.004 148.857 257.92 148.502 257.92C147.994 257.92 147.643 258.162 147.447 258.646L147.453 263H145.76V258.963C145.76 258.596 145.688 258.33 145.543 258.166C145.398 258.002 145.152 257.92 144.805 257.92C144.324 257.92 143.977 258.119 143.762 258.518V263H142.068V256.66H143.656ZM154.25 263H152.551V254H154.25V263ZM128.469 280.805L128.961 276.469H133.742V277.881H130.35L130.139 279.715C130.541 279.5 130.969 279.393 131.422 279.393C132.234 279.393 132.871 279.645 133.332 280.148C133.793 280.652 134.023 281.357 134.023 282.264C134.023 282.814 133.906 283.309 133.672 283.746C133.441 284.18 133.109 284.518 132.676 284.76C132.242 284.998 131.73 285.117 131.141 285.117C130.625 285.117 130.146 285.014 129.705 284.807C129.264 284.596 128.914 284.301 128.656 283.922C128.402 283.543 128.268 283.111 128.252 282.627H129.928C129.963 282.982 130.086 283.26 130.297 283.459C130.512 283.654 130.791 283.752 131.135 283.752C131.518 283.752 131.812 283.615 132.02 283.342C132.227 283.064 132.33 282.674 132.33 282.17C132.33 281.686 132.211 281.314 131.973 281.057C131.734 280.799 131.396 280.67 130.959 280.67C130.557 280.67 130.23 280.775 129.98 280.986L129.816 281.139L128.469 280.805ZM140.85 281.473C140.85 282.652 140.605 283.555 140.117 284.18C139.629 284.805 138.914 285.117 137.973 285.117C137.043 285.117 136.332 284.811 135.84 284.197C135.348 283.584 135.096 282.705 135.084 281.561V279.99C135.084 278.799 135.33 277.895 135.822 277.277C136.318 276.66 137.031 276.352 137.961 276.352C138.891 276.352 139.602 276.658 140.094 277.271C140.586 277.881 140.838 278.758 140.85 279.902V281.473ZM139.156 279.75C139.156 279.043 139.059 278.529 138.863 278.209C138.672 277.885 138.371 277.723 137.961 277.723C137.562 277.723 137.268 277.877 137.076 278.186C136.889 278.49 136.789 278.969 136.777 279.621V281.695C136.777 282.391 136.871 282.908 137.059 283.248C137.25 283.584 137.555 283.752 137.973 283.752C138.387 283.752 138.686 283.59 138.869 283.266C139.053 282.941 139.148 282.445 139.156 281.777V279.75ZM143.656 278.66L143.709 279.369C144.158 278.818 144.766 278.543 145.531 278.543C146.348 278.543 146.908 278.865 147.213 279.51C147.658 278.865 148.293 278.543 149.117 278.543C149.805 278.543 150.316 278.744 150.652 279.146C150.988 279.545 151.156 280.146 151.156 280.951V285H149.457V280.957C149.457 280.598 149.387 280.336 149.246 280.172C149.105 280.004 148.857 279.92 148.502 279.92C147.994 279.92 147.643 280.162 147.447 280.646L147.453 285H145.76V280.963C145.76 280.596 145.688 280.33 145.543 280.166C145.398 280.002 145.152 279.92 144.805 279.92C144.324 279.92 143.977 280.119 143.762 280.518V285H142.068V278.66H143.656ZM154.25 285H152.551V276H154.25V285ZM134.064 307H128.217V305.84L130.977 302.898C131.355 302.484 131.635 302.123 131.814 301.814C131.998 301.506 132.09 301.213 132.09 300.936C132.09 300.557 131.994 300.26 131.803 300.045C131.611 299.826 131.338 299.717 130.982 299.717C130.6 299.717 130.297 299.85 130.074 300.115C129.855 300.377 129.746 300.723 129.746 301.152H128.047C128.047 300.633 128.17 300.158 128.416 299.729C128.666 299.299 129.018 298.963 129.471 298.721C129.924 298.475 130.438 298.352 131.012 298.352C131.891 298.352 132.572 298.562 133.057 298.984C133.545 299.406 133.789 300.002 133.789 300.771C133.789 301.193 133.68 301.623 133.461 302.061C133.242 302.498 132.867 303.008 132.336 303.59L130.396 305.635H134.064V307ZM140.85 303.473C140.85 304.652 140.605 305.555 140.117 306.18C139.629 306.805 138.914 307.117 137.973 307.117C137.043 307.117 136.332 306.811 135.84 306.197C135.348 305.584 135.096 304.705 135.084 303.561V301.99C135.084 300.799 135.33 299.895 135.822 299.277C136.318 298.66 137.031 298.352 137.961 298.352C138.891 298.352 139.602 298.658 140.094 299.271C140.586 299.881 140.838 300.758 140.85 301.902V303.473ZM139.156 301.75C139.156 301.043 139.059 300.529 138.863 300.209C138.672 299.885 138.371 299.723 137.961 299.723C137.562 299.723 137.268 299.877 137.076 300.186C136.889 300.49 136.789 300.969 136.777 301.621V303.695C136.777 304.391 136.871 304.908 137.059 305.248C137.25 305.584 137.555 305.752 137.973 305.752C138.387 305.752 138.686 305.59 138.869 305.266C139.053 304.941 139.148 304.445 139.156 303.777V301.75ZM143.656 300.66L143.709 301.369C144.158 300.818 144.766 300.543 145.531 300.543C146.348 300.543 146.908 300.865 147.213 301.51C147.658 300.865 148.293 300.543 149.117 300.543C149.805 300.543 150.316 300.744 150.652 301.146C150.988 301.545 151.156 302.146 151.156 302.951V307H149.457V302.957C149.457 302.598 149.387 302.336 149.246 302.172C149.105 302.004 148.857 301.92 148.502 301.92C147.994 301.92 147.643 302.162 147.447 302.646L147.453 307H145.76V302.963C145.76 302.596 145.688 302.33 145.543 302.166C145.398 302.002 145.152 301.92 144.805 301.92C144.324 301.92 143.977 302.119 143.762 302.518V307H142.068V300.66H143.656ZM154.25 307H152.551V298H154.25V307ZM134.064 329H128.217V327.84L130.977 324.898C131.355 324.484 131.635 324.123 131.814 323.814C131.998 323.506 132.09 323.213 132.09 322.936C132.09 322.557 131.994 322.26 131.803 322.045C131.611 321.826 131.338 321.717 130.982 321.717C130.6 321.717 130.297 321.85 130.074 322.115C129.855 322.377 129.746 322.723 129.746 323.152H128.047C128.047 322.633 128.17 322.158 128.416 321.729C128.666 321.299 129.018 320.963 129.471 320.721C129.924 320.475 130.438 320.352 131.012 320.352C131.891 320.352 132.572 320.562 133.057 320.984C133.545 321.406 133.789 322.002 133.789 322.771C133.789 323.193 133.68 323.623 133.461 324.061C133.242 324.498 132.867 325.008 132.336 325.59L130.396 327.635H134.064V329ZM140.85 325.473C140.85 326.652 140.605 327.555 140.117 328.18C139.629 328.805 138.914 329.117 137.973 329.117C137.043 329.117 136.332 328.811 135.84 328.197C135.348 327.584 135.096 326.705 135.084 325.561V323.99C135.084 322.799 135.33 321.895 135.822 321.277C136.318 320.66 137.031 320.352 137.961 320.352C138.891 320.352 139.602 320.658 140.094 321.271C140.586 321.881 140.838 322.758 140.85 323.902V325.473ZM139.156 323.75C139.156 323.043 139.059 322.529 138.863 322.209C138.672 321.885 138.371 321.723 137.961 321.723C137.562 321.723 137.268 321.877 137.076 322.186C136.889 322.49 136.789 322.969 136.777 323.621V325.695C136.777 326.391 136.871 326.908 137.059 327.248C137.25 327.584 137.555 327.752 137.973 327.752C138.387 327.752 138.686 327.59 138.869 327.266C139.053 326.941 139.148 326.445 139.156 325.777V323.75ZM143.656 322.66L143.709 323.369C144.158 322.818 144.766 322.543 145.531 322.543C146.348 322.543 146.908 322.865 147.213 323.51C147.658 322.865 148.293 322.543 149.117 322.543C149.805 322.543 150.316 322.744 150.652 323.146C150.988 323.545 151.156 324.146 151.156 324.951V329H149.457V324.957C149.457 324.598 149.387 324.336 149.246 324.172C149.105 324.004 148.857 323.92 148.502 323.92C147.994 323.92 147.643 324.162 147.447 324.646L147.453 329H145.76V324.963C145.76 324.596 145.688 324.33 145.543 324.166C145.398 324.002 145.152 323.92 144.805 323.92C144.324 323.92 143.977 324.119 143.762 324.518V329H142.068V322.66H143.656ZM154.25 329H152.551V320H154.25V329Z" fill="black"/>
<path d="M73.6099 12.2407V17H70.8267V3.49219H76.0962C77.1105 3.49219 78.0011 3.67773 78.7681 4.04883C79.5412 4.41992 80.1349 4.94873 80.5493 5.63525C80.9637 6.31559 81.1709 7.0918 81.1709 7.96387C81.1709 9.28743 80.7163 10.3327 79.8071 11.0996C78.9041 11.8604 77.6517 12.2407 76.0498 12.2407H73.6099ZM73.6099 9.98633H76.0962C76.8322 9.98633 77.3919 9.81315 77.7754 9.4668C78.165 9.12044 78.3599 8.62565 78.3599 7.98242C78.3599 7.32064 78.165 6.78564 77.7754 6.37744C77.3857 5.96924 76.8477 5.75895 76.1611 5.74658H73.6099V9.98633ZM88.6206 17C88.4969 16.7588 88.4072 16.4588 88.3516 16.1001C87.7021 16.8237 86.8579 17.1855 85.8188 17.1855C84.8354 17.1855 84.019 16.901 83.3696 16.332C82.7264 15.763 82.4048 15.0456 82.4048 14.1797C82.4048 13.1159 82.7975 12.2995 83.583 11.7305C84.3747 11.1615 85.5158 10.8739 87.0063 10.8677H88.2402V10.2925C88.2402 9.82861 88.1196 9.45752 87.8784 9.1792C87.6434 8.90088 87.2692 8.76172 86.7559 8.76172C86.3044 8.76172 85.9487 8.86995 85.689 9.08643C85.4354 9.3029 85.3086 9.59977 85.3086 9.97705H82.6274C82.6274 9.39567 82.8068 8.85758 83.1655 8.36279C83.5243 7.868 84.0314 7.48145 84.687 7.20312C85.3426 6.91862 86.0786 6.77637 86.895 6.77637C88.132 6.77637 89.1123 7.0887 89.8359 7.71338C90.5658 8.33187 90.9307 9.20394 90.9307 10.3296V14.6807C90.9368 15.6331 91.0698 16.3537 91.3296 16.8423V17H88.6206ZM86.4033 15.1353C86.7992 15.1353 87.1641 15.0487 87.498 14.8755C87.832 14.6961 88.0794 14.458 88.2402 14.1611V12.4355H87.2383C85.8962 12.4355 85.1818 12.8994 85.0952 13.8271L85.0859 13.9849C85.0859 14.3188 85.2035 14.5941 85.4385 14.8105C85.6735 15.027 85.9951 15.1353 86.4033 15.1353ZM96.2002 4.49414V6.96191H97.9165V8.92871H96.2002V13.9385C96.2002 14.3096 96.2713 14.5755 96.4136 14.7363C96.5558 14.8971 96.828 14.9775 97.23 14.9775C97.5269 14.9775 97.7897 14.9559 98.0186 14.9126V16.9443C97.4928 17.1051 96.9517 17.1855 96.395 17.1855C94.5148 17.1855 93.5562 16.2362 93.519 14.3374V8.92871H92.0532V6.96191H93.519V4.49414H96.2002ZM105.051 9.47607C104.686 9.4266 104.364 9.40186 104.086 9.40186C103.072 9.40186 102.407 9.74512 102.091 10.4316V17H99.4102V6.96191H101.943L102.017 8.15869C102.555 7.23714 103.3 6.77637 104.253 6.77637C104.55 6.77637 104.828 6.81657 105.088 6.89697L105.051 9.47607ZM105.598 11.8882C105.598 10.8924 105.79 10.0049 106.173 9.22559C106.557 8.44629 107.107 7.84326 107.825 7.4165C108.548 6.98975 109.386 6.77637 110.339 6.77637C111.693 6.77637 112.797 7.19076 113.651 8.01953C114.511 8.84831 114.99 9.97396 115.089 11.3965L115.107 12.083C115.107 13.623 114.678 14.86 113.818 15.7939C112.958 16.7217 111.805 17.1855 110.357 17.1855C108.91 17.1855 107.754 16.7217 106.888 15.7939C106.028 14.8662 105.598 13.6045 105.598 12.0088V11.8882ZM108.279 12.083C108.279 13.0355 108.459 13.7653 108.817 14.2725C109.176 14.7734 109.689 15.0239 110.357 15.0239C111.007 15.0239 111.514 14.7765 111.879 14.2817C112.244 13.7808 112.426 12.9829 112.426 11.8882C112.426 10.9543 112.244 10.2306 111.879 9.71729C111.514 9.20394 111.001 8.94727 110.339 8.94727C109.683 8.94727 109.176 9.20394 108.817 9.71729C108.459 10.2244 108.279 11.013 108.279 12.083ZM119.227 6.96191L119.31 8.12158C120.028 7.22477 120.989 6.77637 122.195 6.77637C123.259 6.77637 124.051 7.0887 124.57 7.71338C125.09 8.33805 125.356 9.27197 125.368 10.5151V17H122.687V10.5801C122.687 10.0111 122.563 9.59977 122.316 9.34619C122.069 9.08643 121.657 8.95654 121.082 8.95654C120.327 8.95654 119.762 9.27816 119.384 9.92139V17H116.703V6.96191H119.227ZM61.2339 25.4922L64.7036 35.2891L68.1548 25.4922H71.8101V39H69.0176V35.3076L69.2959 28.9341L65.6499 39H63.7388L60.1021 28.9434L60.3804 35.3076V39H57.5972V25.4922H61.2339ZM79.8813 39C79.7576 38.7588 79.668 38.4588 79.6123 38.1001C78.9629 38.8237 78.1187 39.1855 77.0796 39.1855C76.0962 39.1855 75.2798 38.901 74.6304 38.332C73.9871 37.763 73.6655 37.0456 73.6655 36.1797C73.6655 35.1159 74.0583 34.2995 74.8438 33.7305C75.6354 33.1615 76.7765 32.8739 78.2671 32.8677H79.501V32.2925C79.501 31.8286 79.3804 31.4575 79.1392 31.1792C78.9041 30.9009 78.5299 30.7617 78.0166 30.7617C77.5651 30.7617 77.2095 30.87 76.9497 31.0864C76.6961 31.3029 76.5693 31.5998 76.5693 31.9771H73.8882C73.8882 31.3957 74.0675 30.8576 74.4263 30.3628C74.785 29.868 75.2922 29.4814 75.9478 29.2031C76.6034 28.9186 77.3394 28.7764 78.1558 28.7764C79.3927 28.7764 80.373 29.0887 81.0967 29.7134C81.8265 30.3319 82.1914 31.2039 82.1914 32.3296V36.6807C82.1976 37.6331 82.3306 38.3537 82.5903 38.8423V39H79.8813ZM77.6641 37.1353C78.0599 37.1353 78.4248 37.0487 78.7588 36.8755C79.0928 36.6961 79.3402 36.458 79.501 36.1611V34.4355H78.499C77.1569 34.4355 76.4425 34.8994 76.356 35.8271L76.3467 35.9849C76.3467 36.3188 76.4642 36.5941 76.6992 36.8105C76.9342 37.027 77.2559 37.1353 77.6641 37.1353ZM89.8916 31.4761C89.5267 31.4266 89.2051 31.4019 88.9268 31.4019C87.9124 31.4019 87.2476 31.7451 86.9321 32.4316V39H84.251V28.9619H86.7837L86.8579 30.1587C87.396 29.2371 88.1413 28.7764 89.0938 28.7764C89.3906 28.7764 89.6689 28.8166 89.9287 28.897L89.8916 31.4761ZM90.6152 33.9067C90.6152 32.3667 90.9801 31.1266 91.71 30.1865C92.446 29.2464 93.4355 28.7764 94.6787 28.7764C95.7796 28.7764 96.6362 29.1536 97.2485 29.9082L97.3599 28.9619H99.7905V38.666C99.7905 39.5443 99.5895 40.3081 99.1875 40.9575C98.7917 41.6069 98.2319 42.1017 97.5083 42.4419C96.7847 42.7821 95.9373 42.9521 94.9663 42.9521C94.2303 42.9521 93.5129 42.8037 92.814 42.5068C92.1151 42.2161 91.5863 41.8389 91.2275 41.375L92.415 39.7422C93.083 40.4906 93.8932 40.8647 94.8457 40.8647C95.557 40.8647 96.1105 40.673 96.5063 40.2896C96.9022 39.9123 97.1001 39.3742 97.1001 38.6753V38.1372C96.4816 38.8361 95.6683 39.1855 94.6602 39.1855C93.4541 39.1855 92.4769 38.7155 91.7285 37.7754C90.9863 36.8291 90.6152 35.5767 90.6152 34.0181V33.9067ZM93.2964 34.1016C93.2964 35.0107 93.4788 35.7251 93.8438 36.2446C94.2087 36.758 94.7096 37.0146 95.3467 37.0146C96.1631 37.0146 96.7476 36.7085 97.1001 36.0962V31.875C96.7414 31.2627 96.1631 30.9565 95.3652 30.9565C94.722 30.9565 94.2148 31.2194 93.8438 31.7451C93.4788 32.2708 93.2964 33.0563 93.2964 34.1016ZM107.676 39C107.553 38.7588 107.463 38.4588 107.407 38.1001C106.758 38.8237 105.914 39.1855 104.875 39.1855C103.891 39.1855 103.075 38.901 102.425 38.332C101.782 37.763 101.46 37.0456 101.46 36.1797C101.46 35.1159 101.853 34.2995 102.639 33.7305C103.43 33.1615 104.571 32.8739 106.062 32.8677H107.296V32.2925C107.296 31.8286 107.175 31.4575 106.934 31.1792C106.699 30.9009 106.325 30.7617 105.812 30.7617C105.36 30.7617 105.004 30.87 104.745 31.0864C104.491 31.3029 104.364 31.5998 104.364 31.9771H101.683C101.683 31.3957 101.862 30.8576 102.221 30.3628C102.58 29.868 103.087 29.4814 103.743 29.2031C104.398 28.9186 105.134 28.7764 105.951 28.7764C107.188 28.7764 108.168 29.0887 108.892 29.7134C109.621 30.3319 109.986 31.2039 109.986 32.3296V36.6807C109.993 37.6331 110.125 38.3537 110.385 38.8423V39H107.676ZM105.459 37.1353C105.855 37.1353 106.22 37.0487 106.554 36.8755C106.888 36.6961 107.135 36.458 107.296 36.1611V34.4355H106.294C104.952 34.4355 104.237 34.8994 104.151 35.8271L104.142 35.9849C104.142 36.3188 104.259 36.5941 104.494 36.8105C104.729 37.027 105.051 37.1353 105.459 37.1353ZM117.687 31.4761C117.322 31.4266 117 31.4019 116.722 31.4019C115.707 31.4019 115.042 31.7451 114.727 32.4316V39H112.046V28.9619H114.579L114.653 30.1587C115.191 29.2371 115.936 28.7764 116.889 28.7764C117.186 28.7764 117.464 28.8166 117.724 28.897L117.687 31.4761ZM121.815 39H119.125V28.9619H121.815V39ZM118.967 26.3643C118.967 25.9622 119.1 25.6313 119.366 25.3716C119.638 25.1118 120.006 24.9819 120.47 24.9819C120.927 24.9819 121.292 25.1118 121.564 25.3716C121.837 25.6313 121.973 25.9622 121.973 26.3643C121.973 26.7725 121.833 27.1064 121.555 27.3662C121.283 27.626 120.921 27.7559 120.47 27.7559C120.018 27.7559 119.653 27.626 119.375 27.3662C119.103 27.1064 118.967 26.7725 118.967 26.3643ZM127.242 26.4941V28.9619H128.958V30.9287H127.242V35.9385C127.242 36.3096 127.313 36.5755 127.456 36.7363C127.598 36.8971 127.87 36.9775 128.272 36.9775C128.569 36.9775 128.832 36.9559 129.061 36.9126V38.9443C128.535 39.1051 127.994 39.1855 127.437 39.1855C125.557 39.1855 124.598 38.2362 124.561 36.3374V30.9287H123.095V28.9619H124.561V26.4941H127.242ZM136.269 39C136.145 38.7588 136.056 38.4588 136 38.1001C135.351 38.8237 134.506 39.1855 133.467 39.1855C132.484 39.1855 131.667 38.901 131.018 38.332C130.375 37.763 130.053 37.0456 130.053 36.1797C130.053 35.1159 130.446 34.2995 131.231 33.7305C132.023 33.1615 133.164 32.8739 134.655 32.8677H135.889V32.2925C135.889 31.8286 135.768 31.4575 135.527 31.1792C135.292 30.9009 134.918 30.7617 134.404 30.7617C133.953 30.7617 133.597 30.87 133.337 31.0864C133.084 31.3029 132.957 31.5998 132.957 31.9771H130.276C130.276 31.3957 130.455 30.8576 130.814 30.3628C131.173 29.868 131.68 29.4814 132.335 29.2031C132.991 28.9186 133.727 28.7764 134.543 28.7764C135.78 28.7764 136.761 29.0887 137.484 29.7134C138.214 30.3319 138.579 31.2039 138.579 32.3296V36.6807C138.585 37.6331 138.718 38.3537 138.978 38.8423V39H136.269ZM134.052 37.1353C134.448 37.1353 134.812 37.0487 135.146 36.8755C135.48 36.6961 135.728 36.458 135.889 36.1611V34.4355H134.887C133.545 34.4355 132.83 34.8994 132.744 35.8271L132.734 35.9849C132.734 36.3188 132.852 36.5941 133.087 36.8105C133.322 37.027 133.644 37.1353 134.052 37.1353Z" fill="black"/>
<path d="M66.8013 347.003H71.0542L70.8765 348H65.4302L67.0361 338.758H68.2358L66.8013 347.003ZM73.3521 348H72.2095L73.4028 341.132H74.5454L73.3521 348ZM74.2979 338.625C74.4925 338.616 74.6533 338.675 74.7803 338.802C74.9115 338.925 74.9771 339.088 74.9771 339.291C74.9728 339.49 74.9072 339.653 74.7803 339.78C74.6576 339.907 74.4967 339.974 74.2979 339.983C74.099 339.991 73.936 339.934 73.8091 339.812C73.6821 339.689 73.6208 339.528 73.625 339.329C73.6292 339.13 73.6927 338.965 73.8154 338.834C73.9382 338.703 74.099 338.633 74.2979 338.625ZM77.4971 341.125L77.3511 341.894C77.9266 341.284 78.6227 340.988 79.4395 341.005C79.8753 341.013 80.2435 341.113 80.5439 341.303C80.8486 341.494 81.0581 341.762 81.1724 342.109C81.8156 341.356 82.5752 340.988 83.4512 341.005C84.1367 341.022 84.6424 341.252 84.9683 341.697C85.2941 342.141 85.4147 342.738 85.3301 343.487L84.5747 348H83.4321L84.1812 343.474C84.2065 343.254 84.2065 343.053 84.1812 342.871C84.1007 342.296 83.7241 342.001 83.0513 341.989C82.6323 341.98 82.2515 342.111 81.9087 342.382C81.5701 342.649 81.3522 343 81.2549 343.436L80.4741 348H79.3188L80.0806 343.48C80.1356 343.011 80.0636 342.649 79.8647 342.395C79.6701 342.141 79.3654 342.01 78.9507 342.001C78.2355 341.985 77.6663 342.31 77.2432 342.979L76.3735 348H75.2246L76.418 341.132L77.4971 341.125ZM89.3228 348.127C88.4679 348.11 87.7993 347.795 87.3169 347.181C86.8345 346.568 86.6313 345.783 86.7075 344.826L86.7393 344.553C86.8112 343.872 87.0122 343.25 87.3423 342.687C87.6766 342.124 88.0828 341.701 88.561 341.417C89.0392 341.13 89.5555 340.992 90.1099 341.005C90.8166 341.022 91.3709 341.257 91.7729 341.709C92.175 342.162 92.395 342.776 92.4331 343.55C92.4458 343.825 92.4373 344.1 92.4077 344.375L92.3379 344.902H87.8501C87.7739 345.524 87.8755 346.053 88.1548 346.489C88.4383 346.925 88.8594 347.152 89.418 347.168C90.0951 347.185 90.7214 346.881 91.2969 346.254L91.957 346.813C91.6693 347.228 91.2969 347.554 90.8398 347.791C90.387 348.023 89.8813 348.135 89.3228 348.127ZM90.0527 341.963C89.5788 341.951 89.1641 342.111 88.8086 342.446C88.4574 342.78 88.1781 343.277 87.9707 343.938L91.3096 343.944L91.335 343.842C91.4027 343.309 91.3159 342.867 91.0747 342.516C90.8377 342.16 90.4971 341.976 90.0527 341.963ZM98.9141 345.15L98.8887 346.267L99.3203 345.175L102.082 338.758H103.091L103.821 345.258L103.884 346.312L104.284 345.036L106.646 338.758H107.871L104.252 348H103.167L102.367 341.214L102.342 340.58L102.075 341.316L99.1299 348H98.0444L97.3208 338.758H98.4824L98.9141 345.15ZM109.673 341.97C110.274 341.314 110.966 340.994 111.749 341.011C112.392 341.02 112.868 341.242 113.177 341.678C113.49 342.109 113.607 342.717 113.526 343.5L112.777 348H111.628L112.384 343.48C112.409 343.273 112.411 343.081 112.39 342.903C112.318 342.31 111.969 342.008 111.343 341.995C110.64 341.978 110.035 342.346 109.527 343.1L108.677 348H107.528L109.223 338.25H110.372L109.673 341.97ZM117.506 348.127C116.652 348.11 115.983 347.795 115.5 347.181C115.018 346.568 114.815 345.783 114.891 344.826L114.923 344.553C114.995 343.872 115.196 343.25 115.526 342.687C115.86 342.124 116.266 341.701 116.745 341.417C117.223 341.13 117.739 340.992 118.293 341.005C119 341.022 119.555 341.257 119.957 341.709C120.359 342.162 120.579 342.776 120.617 343.55C120.629 343.825 120.621 344.1 120.591 344.375L120.521 344.902H116.034C115.958 345.524 116.059 346.053 116.338 346.489C116.622 346.925 117.043 347.152 117.602 347.168C118.279 347.185 118.905 346.881 119.48 346.254L120.141 346.813C119.853 347.228 119.48 347.554 119.023 347.791C118.571 348.023 118.065 348.135 117.506 348.127ZM118.236 341.963C117.762 341.951 117.348 342.111 116.992 342.446C116.641 342.78 116.362 343.277 116.154 343.938L119.493 343.944L119.519 343.842C119.586 343.309 119.5 342.867 119.258 342.516C119.021 342.16 118.681 341.976 118.236 341.963ZM124.248 348.127C123.393 348.11 122.724 347.795 122.242 347.181C121.759 346.568 121.556 345.783 121.632 344.826L121.664 344.553C121.736 343.872 121.937 343.25 122.267 342.687C122.601 342.124 123.008 341.701 123.486 341.417C123.964 341.13 124.48 340.992 125.035 341.005C125.741 341.022 126.296 341.257 126.698 341.709C127.1 342.162 127.32 342.776 127.358 343.55C127.371 343.825 127.362 344.1 127.333 344.375L127.263 344.902H122.775C122.699 345.524 122.8 346.053 123.08 346.489C123.363 346.925 123.784 347.152 124.343 347.168C125.02 347.185 125.646 346.881 126.222 346.254L126.882 346.813C126.594 347.228 126.222 347.554 125.765 347.791C125.312 348.023 124.806 348.135 124.248 348.127ZM124.978 341.963C124.504 341.951 124.089 342.111 123.733 342.446C123.382 342.78 123.103 343.277 122.896 343.938L126.234 343.944L126.26 343.842C126.327 343.309 126.241 342.867 126 342.516C125.763 342.16 125.422 341.976 124.978 341.963ZM129.262 348H128.12L129.808 338.25H130.957L129.262 348Z" fill="black"/>
</svg>
